<svg xmlns="http://www.w3.org/2000/svg" version="1.1" xmlns:xlink="http://www.w3.org/1999/xlink" width="1000" height="1000"><style>
    #light-icon {
      display: inline;
    }
    #dark-icon {
      display: none;
    }

    @media (prefers-color-scheme: dark) {
      #light-icon {
        display: none;
      }
      #dark-icon {
        display: inline;
      }
    }
  </style><g id="light-icon"><svg xmlns="http://www.w3.org/2000/svg" version="1.1" xmlns:xlink="http://www.w3.org/1999/xlink" width="1000" height="1000"><g><g transform="matrix(0.5,0,0,0.5,0,0)"><svg xmlns="http://www.w3.org/2000/svg" version="1.1" xmlns:xlink="http://www.w3.org/1999/xlink" width="2000" height="2000"><svg id="Capa_1" xmlns="http://www.w3.org/2000/svg" viewBox="0 0 2000 2000"><defs><style>.cls-1{fill:#fff;}.cls-2{fill:#0049ff;}</style></defs><rect class="cls-2" x="0" y="0" width="2000" height="2000" rx="1000" ry="1000"></rect><polygon class="cls-1" points="1426.67 519.82 1009.39 1219.04 577.3 519.82 432.81 519.82 432.81 1625 568.57 1625 567.11 768.5 943.55 1376.33 1058.04 1376.33 1423.44 779.27 1421.95 1625 1567.19 1625 1567.19 519.82 1426.67 519.82"></polygon><path class="cls-1" d="M1000.42,664.64c-20.37,0-39.31-3.67-56.84-11.01-17.53-7.34-32.8-17.56-45.83-30.65-13.03-13.09-23.18-28.43-30.45-46.02-7.27-17.59-10.91-36.63-10.91-57.14s3.64-39.74,10.91-57.33c7.27-17.59,17.43-32.93,30.45-46.03,13.03-13.09,28.3-23.27,45.83-30.55,17.52-7.27,36.47-10.91,56.84-10.91s39.08,3.7,56.54,11.11c17.46,7.41,32.73,17.73,45.83,30.95,13.09,13.23,23.31,28.6,30.65,46.12,7.34,17.53,11.01,36.4,11.01,56.64s-3.67,39.55-11.01,57.14c-7.34,17.59-17.56,32.93-30.65,46.02s-28.37,23.31-45.83,30.65c-17.46,7.34-36.3,11.01-56.54,11.01Z"></path></svg></svg></g></g></svg></g><g id="dark-icon"><svg xmlns="http://www.w3.org/2000/svg" version="1.1" xmlns:xlink="http://www.w3.org/1999/xlink" width="1000" height="1000"><g><g transform="matrix(0.5,0,0,0.5,0,0)"><svg xmlns="http://www.w3.org/2000/svg" version="1.1" xmlns:xlink="http://www.w3.org/1999/xlink" width="2000" height="2000"><svg id="Capa_1" xmlns="http://www.w3.org/2000/svg" viewBox="0 0 2000 2000"><defs><style>.cls-1{fill:#fff;}.cls-2{fill:#0049ff;}</style></defs><rect class="cls-1" x="0" y="0" width="2000" height="2000" rx="1000" ry="1000"></rect><polygon class="cls-2" points="1426.67 519.82 1009.39 1219.04 577.3 519.82 432.81 519.82 432.81 1625 568.57 1625 567.11 768.5 943.55 1376.33 1058.04 1376.33 1423.44 779.27 1421.95 1625 1567.19 1625 1567.19 519.82 1426.67 519.82"></polygon><path class="cls-2" d="M1000.42,664.64c-20.37,0-39.31-3.67-56.84-11.01-17.53-7.34-32.8-17.56-45.83-30.65-13.03-13.09-23.18-28.43-30.45-46.02-7.27-17.59-10.91-36.63-10.91-57.14s3.64-39.74,10.91-57.33c7.27-17.59,17.43-32.93,30.45-46.03,13.03-13.09,28.3-23.27,45.83-30.55,17.52-7.27,36.47-10.91,56.84-10.91s39.08,3.7,56.54,11.11c17.46,7.41,32.73,17.73,45.83,30.95,13.09,13.23,23.31,28.6,30.65,46.12,7.34,17.53,11.01,36.4,11.01,56.64s-3.67,39.55-11.01,57.14c-7.34,17.59-17.56,32.93-30.65,46.02s-28.37,23.31-45.83,30.65c-17.46,7.34-36.3,11.01-56.54,11.01Z"></path></svg></svg></g></g></svg></g></svg>