<svg width="308" height="250" viewBox="0 0 308 250" fill="none" xmlns="http://www.w3.org/2000/svg">
<g clip-path="url(#clip0_201_1776)">
<path d="M149.009 247.621C147.199 247.621 145.386 247.595 143.571 247.542C128.663 247.104 113.991 244.875 99.9635 240.919C85.6484 236.882 72.3183 231.129 60.3426 223.821C48.09 216.344 37.3168 206.921 28.3239 195.813C19.1992 184.542 12.1701 171.857 7.43195 158.108C2.13796 142.75 -0.475296 125.956 0.0715241 110.821C0.382698 102.202 1.69789 94.1106 3.97882 86.7725C6.4803 78.7258 10.16 71.5488 14.9173 65.4387C19.3069 59.7998 24.4297 55.6848 30.1416 53.2056C35.2523 50.9881 40.9975 50.0137 47.2179 50.3116C52.6126 50.5693 58.3588 51.74 64.7867 53.8901C69.9004 55.6003 75.2901 57.8702 81.7492 61.0319C96.4751 68.2411 107.966 72.2635 119.009 74.0743C132.479 76.2828 145.266 75.0376 158.102 70.2674C169.943 65.8665 180.695 58.3453 191.091 51.0716C203.917 42.0988 217.179 32.821 232.691 29.2174C240.001 27.5183 247.424 27.3754 254.752 28.7906C261.685 30.1294 268.372 32.8261 274.626 36.8031C280.689 40.6604 286.124 45.5756 290.779 51.4118C295.443 57.2622 299.126 63.7889 301.724 70.8119C307.173 85.5415 309.088 101.194 307.415 117.335C305.864 132.298 301.293 147.308 293.828 161.946C279.669 189.71 256.039 213.921 228.997 228.368C216.351 235.126 202.466 240.198 187.729 243.446C175.14 246.22 162.139 247.621 149.009 247.621ZM45.0518 52.2725C39.9381 52.2725 35.2 53.2046 30.9432 55.0527C25.5445 57.396 20.6866 61.3057 16.5064 66.6759C11.8992 72.5936 8.33123 79.5562 5.90226 87.3704C3.67369 94.5384 2.38972 102.452 2.08459 110.895C1.54683 125.789 4.12182 142.323 9.33626 157.453C13.9978 170.979 20.9131 183.459 29.8899 194.547C38.7377 205.475 49.3367 214.747 61.392 222.103C73.2105 229.315 86.3715 234.995 100.51 238.982C114.379 242.893 128.887 245.097 143.631 245.53C158.441 245.965 173.132 244.603 187.296 241.481C201.853 238.273 215.564 233.264 228.048 226.594C254.736 212.335 278.058 188.439 292.034 161.032C299.387 146.616 303.888 131.844 305.413 117.127C307.053 101.296 305.177 85.9481 299.836 71.5105C297.312 64.6888 293.735 58.3493 289.205 52.6671C284.689 47.005 279.42 42.2387 273.545 38.5023C267.506 34.6611 261.055 32.059 254.371 30.7676C247.322 29.4067 240.182 29.5446 233.148 31.1783C226.371 32.7536 219.424 35.5912 211.913 39.8531C205.179 43.6752 198.605 48.2733 192.247 52.7214C181.746 60.0676 170.888 67.6633 158.805 72.1547C145.633 77.0508 132.509 78.3282 118.683 76.0613C107.438 74.2173 95.7742 70.1395 80.864 62.8407C74.4875 59.7193 69.1753 57.4816 64.1482 55.7996C57.8986 53.7089 52.3297 52.5714 47.1223 52.3228C46.4254 52.2896 45.7356 52.2725 45.0528 52.2725H45.0518Z" fill="#C8DEF4"/>
<path d="M274.726 24.4814C255.845 1.54312 222.88 -8.16348 197.176 8.0417C172.984 23.2926 162.161 53.1563 140.294 71.2066C117.368 90.1305 92.1307 91.123 64.3738 87.7459C40.4486 84.8348 13.2173 85.2918 3.76328 113.15C-6.48936 143.359 8.63935 178.91 26.9483 202.199C45.0004 225.159 70.1773 240.538 97.9222 246.56C153.221 258.563 218.382 238.491 257.78 195.845C298.509 151.76 315.887 74.487 274.727 24.4814H274.726Z" fill="#C8DEF4"/>
<path d="M153.286 58.615L68.5037 131.422L70.0817 164.365C70.0817 168.295 74.8238 224.006 79.3343 224.006L158.498 171.051L229.829 218.569C234.339 218.569 243.047 166.796 243.047 162.866L248.32 131.345L163.462 58.615C160.484 56.5485 156.263 56.5485 153.285 58.615H153.286Z" fill="#001528"/>
<path d="M226.605 84.6899H89.8165C86.1714 84.6899 83.2164 87.6436 83.2164 91.2871V230.561C83.2164 234.204 86.1714 237.158 89.8165 237.158H226.605C230.25 237.158 233.205 234.204 233.205 230.561V91.2871C233.205 87.6436 230.25 84.6899 226.605 84.6899Z" fill="white"/>
<path d="M128.527 173.506H96.7349C95.5033 173.506 94.5043 172.507 94.5043 171.276V139.498C94.5043 138.267 95.5033 137.268 96.7349 137.268H128.527C129.759 137.268 130.758 138.267 130.758 139.498V171.276C130.758 172.507 129.759 173.506 128.527 173.506ZM98.9655 169.048H126.297V141.728H98.9655V169.048Z" fill="#C8DEF4"/>
<path d="M225.802 164.814H146.452C145.221 164.814 144.222 163.815 144.222 162.584C144.222 161.353 145.221 160.355 146.452 160.355H225.802C227.033 160.355 228.032 161.353 228.032 162.584C228.032 163.815 227.033 164.814 225.802 164.814Z" fill="#749DD3"/>
<path d="M110.462 166.305C110.444 166.305 110.426 166.305 110.407 166.305C109.591 166.284 108.851 165.82 108.478 165.094L104.589 157.516C104.027 156.421 104.459 155.077 105.556 154.515C106.651 153.954 107.996 154.386 108.557 155.482L110.576 159.414L118.543 145.59C119.159 144.524 120.521 144.156 121.589 144.772C122.656 145.387 123.023 146.749 122.407 147.815L112.393 165.189C111.994 165.881 111.257 166.306 110.461 166.306L110.462 166.305Z" fill="#314982"/>
<path d="M186.336 145.962H146.433C145.212 145.962 144.222 146.952 144.222 148.172C144.222 149.393 145.212 150.382 146.433 150.382H186.336C187.557 150.382 188.547 149.393 188.547 148.172C188.547 146.952 187.557 145.962 186.336 145.962Z" fill="#C8DEF4"/>
<path d="M128.527 132.198H96.7349C95.5033 132.198 94.5043 131.2 94.5043 129.969V98.1903C94.5043 96.9593 95.5033 95.9607 96.7349 95.9607H128.527C129.759 95.9607 130.758 96.9593 130.758 98.1903V129.969C130.758 131.2 129.759 132.198 128.527 132.198ZM98.9655 127.74H126.297V100.42H98.9655V127.74Z" fill="#C8DEF4"/>
<path d="M206.839 109.113H146.176C145.097 109.113 144.223 108.114 144.223 106.883C144.223 105.652 145.098 104.654 146.176 104.654H206.839C207.918 104.654 208.793 105.652 208.793 106.883C208.793 108.114 207.918 109.113 206.839 109.113Z" fill="#C8DEF4"/>
<path d="M221.031 123.506H146.321C145.162 123.506 144.222 122.508 144.222 121.277C144.222 120.046 145.162 119.047 146.321 119.047H221.031C222.19 119.047 223.131 120.046 223.131 121.277C223.131 122.508 222.19 123.506 221.031 123.506Z" fill="#749DD3"/>
<path d="M110.462 124.997C110.444 124.997 110.426 124.997 110.407 124.997C109.591 124.977 108.851 124.513 108.478 123.786L104.589 116.208C104.027 115.113 104.459 113.769 105.556 113.208C106.651 112.646 107.996 113.078 108.557 114.174L110.576 118.107L118.543 104.282C119.159 103.216 120.521 102.849 121.589 103.464C122.656 104.079 123.023 105.442 122.407 106.508L112.393 123.882C111.994 124.573 111.257 124.998 110.461 124.998L110.462 124.997Z" fill="#314982"/>
<path d="M160.237 186.482L201.146 146.248C211.89 135.682 227.226 129.644 243.32 129.644C247.099 129.644 250.164 132.045 250.164 135.007V242.544C250.164 245.506 245.054 250.002 241.274 250.002H218.028L160.236 193.165C158.303 191.263 158.303 188.384 160.236 186.484L160.237 186.482Z" fill="#262F5F"/>
<path d="M156.761 186.408L115.851 146.175C105.107 135.608 89.7723 129.571 73.6778 129.571C69.8984 129.571 66.834 131.972 66.834 134.933V243.116C66.834 246.077 71.2206 250.002 75.0011 250.002L98.9695 249.928L156.762 193.091C158.695 191.19 158.695 188.311 156.762 186.41L156.761 186.408Z" fill="#262F5F"/>
<path d="M250.164 220.533V243.724C250.164 247.191 246.507 250 241.998 250H75C70.4905 250 66.834 247.191 66.834 243.724V220.533L153.411 167.537C154.82 166.675 156.508 166.219 158.211 166.174C160.106 166.122 162.019 166.577 163.589 167.537L250.166 220.533H250.164Z" fill="#2C447D"/>
<path d="M174.712 172.171L250.164 210.666V220.533L173.355 173.506L174.712 172.171Z" fill="#001528"/>
<path d="M142.286 172.171L66.834 210.666V220.533L143.643 173.506L142.286 172.171Z" fill="#001528"/>
<path d="M115.388 43.8352L97.6925 101.279L94.8577 110.484L86.7743 103.665L65.6456 85.8475L115.388 43.8352Z" fill="#2C447D"/>
<path d="M115.387 43.8352L53.9097 79.3257L25.9453 70.062L115.387 43.8352Z" fill="#262F5F"/>
<path d="M115.387 43.8352L65.6467 85.8485L56.0859 104.954L53.9097 79.3257L115.387 43.8352Z" fill="#001528"/>
<path d="M133.963 238.243C133.868 238.243 133.772 238.23 133.675 238.201C131.622 237.59 129.561 236.889 127.551 236.119C127.032 235.92 126.773 235.338 126.971 234.819C127.171 234.299 127.753 234.039 128.272 234.239C130.235 234.991 132.246 235.674 134.25 236.271C134.783 236.43 135.087 236.99 134.928 237.523C134.798 237.96 134.397 238.243 133.963 238.243ZM120.12 232.74C119.968 232.74 119.813 232.706 119.668 232.632C117.753 231.667 115.847 230.615 114.008 229.508C113.531 229.221 113.377 228.603 113.664 228.126C113.951 227.65 114.569 227.496 115.047 227.782C116.844 228.865 118.704 229.891 120.575 230.834C121.072 231.085 121.271 231.69 121.022 232.186C120.844 232.538 120.49 232.74 120.121 232.74H120.12ZM107.455 224.898C107.245 224.898 107.034 224.832 106.853 224.697C105.131 223.41 103.438 222.042 101.823 220.633C101.649 220.481 101.539 220.281 101.498 220.07C100.561 220.4 99.5979 220.685 98.617 220.922C98.0773 221.053 97.5325 220.721 97.4015 220.181C97.2706 219.64 97.6029 219.097 98.1437 218.966C100.176 218.473 102.119 217.765 103.92 216.858C104.417 216.608 105.022 216.808 105.273 217.304C105.522 217.8 105.323 218.406 104.826 218.656C104.357 218.892 103.879 219.116 103.392 219.327C104.896 220.629 106.465 221.892 108.06 223.085C108.505 223.418 108.597 224.048 108.263 224.494C108.066 224.759 107.763 224.898 107.456 224.898H107.455ZM89.9223 221.746C89.9062 221.746 89.8901 221.746 89.8739 221.745C87.7441 221.644 85.5578 221.337 83.3735 220.834C82.8317 220.709 82.4934 220.169 82.6182 219.627C82.7431 219.085 83.2839 218.747 83.8257 218.872C85.8921 219.348 87.9596 219.638 89.9686 219.734C90.5245 219.76 90.9535 220.232 90.9263 220.787C90.9011 221.326 90.455 221.746 89.9213 221.746H89.9223ZM75.5428 218.119C75.4048 218.119 75.2659 218.091 75.1319 218.031C73.2196 217.175 71.279 216.164 69.3626 215.025C68.8843 214.741 68.7272 214.123 69.0122 213.645C69.2962 213.167 69.9145 213.01 70.3928 213.294C72.2428 214.394 74.1138 215.369 75.9557 216.192C76.4632 216.42 76.6908 217.015 76.4632 217.522C76.2961 217.896 75.9285 218.118 75.5438 218.118L75.5428 218.119ZM96.3643 214.957C96.0924 214.957 95.8205 214.848 95.6221 214.631C94.1186 212.994 92.7581 211.263 91.5778 209.488C91.2697 209.025 91.3956 208.399 91.8588 208.092C92.322 207.784 92.9474 207.91 93.2546 208.373C94.3774 210.061 95.6735 211.709 97.1055 213.27C97.4811 213.68 97.4539 214.317 97.044 214.693C96.8507 214.87 96.607 214.957 96.3633 214.957H96.3643ZM111.171 213.703C110.927 213.703 110.681 213.615 110.488 213.436C110.079 213.059 110.054 212.423 110.431 212.014C111.06 211.333 111.643 210.607 112.164 209.857C112.78 208.97 113.323 208.006 113.776 206.99C114.003 206.483 114.598 206.254 115.106 206.481C115.614 206.707 115.842 207.302 115.616 207.811C115.111 208.941 114.507 210.015 113.818 211.006C113.244 211.831 112.603 212.63 111.911 213.379C111.713 213.594 111.442 213.703 111.171 213.703ZM62.8562 210.344C62.6386 210.344 62.4191 210.274 62.2348 210.13C60.548 208.806 58.8955 207.383 57.3255 205.898C56.9217 205.517 56.9036 204.879 57.2852 204.475C57.6669 204.07 58.3044 204.053 58.7092 204.434C60.2348 205.877 61.8401 207.26 63.4785 208.545C63.9156 208.889 63.9921 209.522 63.6487 209.959C63.4503 210.211 63.1542 210.344 62.8562 210.344ZM88.6806 202.31C88.2506 202.31 87.8518 202.032 87.7189 201.599C87.1126 199.632 86.8055 197.715 86.8055 195.902C86.8055 195.58 86.8156 195.257 86.8347 194.942C86.8689 194.388 87.3453 193.966 87.9012 193.998C88.456 194.032 88.879 194.509 88.8458 195.064C88.8286 195.339 88.8206 195.621 88.8206 195.902C88.8206 197.514 89.0975 199.231 89.6453 201.006C89.8095 201.537 89.5114 202.101 88.9797 202.264C88.881 202.294 88.7813 202.31 88.6826 202.31H88.6806ZM116.432 200.129C115.878 200.129 115.426 199.681 115.424 199.127C115.416 197.046 115.072 195.052 114.401 193.199C114.212 192.676 114.483 192.099 115.006 191.91C115.528 191.721 116.106 191.992 116.296 192.514C117.045 194.584 117.429 196.806 117.439 199.119C117.441 199.674 116.991 200.127 116.436 200.129H116.432ZM52.1906 199.961C51.9016 199.961 51.6146 199.837 51.4162 199.598C50.0426 197.946 48.7244 196.211 47.4989 194.439C47.1827 193.982 47.2964 193.355 47.7547 193.039C48.2118 192.723 48.8392 192.836 49.1554 193.294C50.3478 195.017 51.6297 196.705 52.9651 198.311C53.3205 198.739 53.2621 199.373 52.8341 199.729C52.6458 199.885 52.4182 199.961 52.1906 199.961ZM90.9766 188.26C90.736 188.26 90.4943 188.175 90.3019 188.001C89.889 187.628 89.8578 186.991 90.2304 186.579C91.7198 184.934 93.7037 183.655 95.9695 182.882C96.4962 182.703 97.0682 182.984 97.2475 183.509C97.4267 184.035 97.1458 184.608 96.6201 184.787C94.6775 185.449 92.9847 186.536 91.7239 187.929C91.5255 188.149 91.2516 188.26 90.9766 188.26ZM43.9017 187.597C43.5412 187.597 43.1918 187.403 43.0115 187.062C42.0015 185.157 41.0669 183.187 40.2331 181.209C40.0176 180.697 40.2583 180.107 40.7709 179.891C41.2834 179.675 41.8736 179.916 42.0901 180.428C42.8997 182.352 43.8091 184.266 44.7909 186.118C45.0518 186.61 44.8645 187.219 44.373 187.479C44.223 187.559 44.0608 187.597 43.9017 187.597ZM110.478 187.009C110.264 187.009 110.048 186.942 109.866 186.801C108.353 185.64 106.494 184.799 104.492 184.366C103.948 184.248 103.603 183.713 103.721 183.17C103.839 182.627 104.373 182.28 104.918 182.399C107.21 182.893 109.345 183.864 111.092 185.204C111.533 185.543 111.617 186.175 111.277 186.616C111.079 186.874 110.78 187.009 110.478 187.009ZM38.3348 173.794C37.8958 173.794 37.493 173.505 37.3671 173.062C36.7749 170.982 36.2754 168.859 35.8837 166.753C35.782 166.206 36.1425 165.681 36.6893 165.579C37.2362 165.477 37.7618 165.838 37.8635 166.384C38.2442 168.43 38.7286 170.491 39.3036 172.51C39.4557 173.045 39.1455 173.601 38.6108 173.754C38.5181 173.781 38.4255 173.793 38.3348 173.793V173.794ZM35.8464 159.123C35.3167 159.123 34.8737 158.71 34.8424 158.174C34.7629 156.816 34.7226 155.435 34.7226 154.068C34.7226 153.281 34.7357 152.482 34.7619 151.695C34.78 151.139 35.2483 150.704 35.8021 150.723C36.358 150.741 36.7941 151.207 36.7749 151.762C36.7498 152.528 36.7367 153.304 36.7367 154.069C36.7367 155.397 36.7759 156.739 36.8525 158.058C36.8847 158.612 36.4607 159.088 35.9059 159.122C35.8857 159.123 35.8656 159.124 35.8464 159.124V159.123ZM36.5614 144.257C36.5101 144.257 36.4587 144.253 36.4074 144.245C35.8575 144.161 35.4809 143.646 35.5655 143.098C35.8928 140.974 36.3187 138.837 36.8323 136.746C36.9653 136.206 37.5101 135.876 38.0509 136.008C38.5906 136.141 38.9209 136.686 38.788 137.226C38.2885 139.259 37.8736 141.338 37.5554 143.404C37.4789 143.901 37.0499 144.257 36.5614 144.257ZM40.3257 129.858C40.2079 129.858 40.0891 129.837 39.9723 129.793C39.4516 129.598 39.1878 129.018 39.3832 128.498C40.1405 126.479 40.9964 124.475 41.9259 122.54C42.1666 122.039 42.7678 121.827 43.2693 122.069C43.7708 122.309 43.9813 122.911 43.7406 123.412C42.8363 125.292 42.0045 127.242 41.2683 129.205C41.1163 129.609 40.7326 129.858 40.3247 129.858H40.3257ZM46.9802 116.545C46.7939 116.545 46.6066 116.493 46.4385 116.386C45.9702 116.086 45.8332 115.464 46.1333 114.995C47.3005 113.175 48.5623 111.395 49.8835 109.707C50.2259 109.269 50.8593 109.191 51.2974 109.534C51.7355 109.876 51.813 110.509 51.4706 110.947C50.1887 112.586 48.9641 114.313 47.8302 116.082C47.6378 116.382 47.3126 116.546 46.9812 116.546L46.9802 116.545Z" fill="#749DD3"/>
<path d="M186.245 237.195C186.187 237.195 186.128 237.19 186.069 237.18C185.521 237.083 185.156 236.561 185.252 236.014C185.625 233.904 186.275 231.776 187.186 229.692C187.408 229.183 188.003 228.949 188.512 229.173C189.022 229.395 189.254 229.988 189.032 230.498C188.185 232.436 187.581 234.41 187.236 236.365C187.15 236.853 186.725 237.197 186.245 237.197V237.195ZM230.721 229.136C230.692 229.136 230.662 229.135 230.632 229.132C228.384 228.935 226.11 228.057 224.23 226.66C223.784 226.328 223.691 225.698 224.022 225.252C224.355 224.806 224.985 224.713 225.431 225.044C227.015 226.222 228.924 226.962 230.808 227.126C231.361 227.174 231.771 227.663 231.723 228.216C231.677 228.741 231.238 229.135 230.721 229.135V229.136ZM238.227 225.977C238.017 225.977 237.804 225.911 237.623 225.775C237.178 225.441 237.088 224.811 237.423 224.366C238.458 222.989 239.005 221.223 239.005 219.261C239.005 219.169 239.004 219.076 239.001 218.985C238.986 218.429 239.425 217.967 239.981 217.952C240.533 217.935 240.999 218.376 241.014 218.931C241.017 219.041 241.018 219.151 241.018 219.261C241.018 221.663 240.331 223.847 239.033 225.575C238.836 225.839 238.533 225.978 238.227 225.978V225.977ZM192.5 223.824C192.283 223.824 192.065 223.755 191.881 223.611C191.443 223.269 191.364 222.637 191.706 222.198C193.015 220.523 194.501 218.901 196.123 217.376C196.528 216.996 197.166 217.015 197.547 217.42C197.928 217.824 197.909 218.461 197.504 218.843C195.956 220.297 194.54 221.844 193.295 223.437C193.096 223.692 192.799 223.824 192.5 223.824ZM220.686 219.705C220.179 219.705 219.742 219.324 219.686 218.809C219.636 218.355 219.61 217.89 219.61 217.428C219.61 215.641 219.977 213.837 220.698 212.066C220.908 211.552 221.496 211.304 222.01 211.514C222.526 211.723 222.772 212.311 222.563 212.825C221.94 214.354 221.623 215.903 221.623 217.428C221.623 217.817 221.645 218.208 221.687 218.589C221.747 219.142 221.349 219.639 220.796 219.699C220.758 219.703 220.721 219.705 220.685 219.705H220.686ZM203.528 213.881C203.197 213.881 202.873 213.718 202.681 213.42C202.38 212.953 202.514 212.33 202.981 212.029C204.819 210.844 206.739 209.781 208.69 208.87C209.194 208.634 209.794 208.851 210.029 209.355C210.265 209.858 210.048 210.458 209.544 210.693C207.675 211.568 205.834 212.587 204.073 213.722C203.904 213.831 203.715 213.883 203.528 213.883V213.881ZM237.009 212.159C236.725 212.159 236.444 212.04 236.245 211.809C235.894 211.401 235.516 211.025 235.119 210.689C234.043 209.78 232.802 209.032 231.426 208.464C230.912 208.251 230.668 207.663 230.88 207.149C231.093 206.636 231.682 206.391 232.195 206.604C233.763 207.252 235.184 208.11 236.42 209.152C236.898 209.557 237.353 210.009 237.773 210.497C238.136 210.919 238.087 211.554 237.666 211.916C237.475 212.08 237.242 212.159 237.01 212.159H237.009ZM217.142 207.955C216.687 207.955 216.274 207.643 216.163 207.181C216.034 206.641 216.369 206.097 216.91 205.968C217.29 205.878 217.673 205.793 218.046 205.716C219.865 205.341 221.682 205.134 223.447 205.099C224.006 205.092 224.463 205.53 224.474 206.085C224.485 206.641 224.043 207.101 223.487 207.112C221.845 207.145 220.151 207.338 218.452 207.688C218.098 207.76 217.736 207.841 217.376 207.926C217.297 207.945 217.219 207.953 217.141 207.953L217.142 207.955ZM226.774 206.78C226.471 206.78 226.171 206.643 225.973 206.383C225.635 205.941 225.72 205.309 226.162 204.972C227.013 204.323 227.918 203.761 228.852 203.303C229.885 202.796 231.01 202.362 232.195 202.012C232.729 201.855 233.289 202.16 233.446 202.692C233.603 203.226 233.298 203.785 232.765 203.942C231.689 204.259 230.671 204.652 229.74 205.109C228.923 205.509 228.131 206.002 227.384 206.571C227.201 206.71 226.987 206.778 226.773 206.778L226.774 206.78ZM240.892 202.731C240.361 202.731 239.917 202.317 239.887 201.78C239.857 201.225 240.282 200.75 240.838 200.72C242.018 200.656 243.209 200.614 244.361 200.575L244.862 200.558C245.811 200.525 246.541 200.495 247.226 200.457C247.781 200.427 248.256 200.854 248.286 201.409C248.315 201.963 247.889 202.437 247.334 202.468C246.635 202.505 245.894 202.536 244.931 202.569L244.43 202.586C243.288 202.626 242.107 202.666 240.947 202.729C240.928 202.729 240.91 202.73 240.891 202.73L240.892 202.731ZM255.699 201.25C255.26 201.25 254.858 200.962 254.731 200.52C254.578 199.985 254.887 199.428 255.423 199.276C257.068 198.806 258.501 198.197 259.802 197.414C260.108 197.231 260.441 196.994 260.791 196.711C261.223 196.361 261.858 196.427 262.207 196.86C262.557 197.292 262.49 197.926 262.058 198.275C261.635 198.617 261.225 198.908 260.839 199.141C259.384 200.014 257.793 200.692 255.975 201.211C255.883 201.238 255.79 201.251 255.699 201.251V201.25ZM266.757 191.904C266.589 191.904 266.418 191.862 266.261 191.773C265.778 191.5 265.608 190.885 265.882 190.402C266.901 188.605 267.717 186.701 268.308 184.744C268.468 184.212 269.03 183.911 269.562 184.072C270.095 184.233 270.396 184.795 270.235 185.326C269.602 187.426 268.726 189.467 267.633 191.394C267.448 191.721 267.106 191.904 266.756 191.904H266.757ZM270.435 177.638C269.889 177.638 269.441 177.201 269.429 176.652C269.387 174.627 269.102 172.58 268.582 170.57C268.443 170.031 268.766 169.482 269.304 169.343C269.842 169.204 270.391 169.527 270.531 170.064C271.091 172.226 271.398 174.429 271.444 176.61C271.455 177.166 271.014 177.626 270.458 177.638C270.451 177.638 270.444 177.638 270.437 177.638H270.435Z" fill="#749DD3"/>
<path d="M256.467 165.041C268.124 165.041 277.573 155.596 277.573 143.944C277.573 132.292 268.124 122.847 256.467 122.847C244.81 122.847 235.36 132.292 235.36 143.944C235.36 155.596 244.81 165.041 256.467 165.041Z" fill="#0049FF"/>
<path d="M264.585 146.659V141.892C264.585 137.41 260.95 133.778 256.467 133.778C251.984 133.778 248.349 137.41 248.349 141.892V146.659C248.349 149.252 247.638 150.242 246.294 152.46H266.641C265.297 150.242 264.586 149.252 264.586 146.659H264.585Z" fill="white"/>
<path d="M256.467 156.597C254.775 156.597 253.403 155.226 253.403 153.534H259.53C259.53 155.225 258.159 156.597 256.466 156.597H256.467Z" fill="white"/>
<path d="M256.467 131.291C255.093 131.291 253.981 132.403 253.981 133.776C253.981 135.149 255.094 136.262 256.467 136.262C257.84 136.262 258.953 135.148 258.953 133.776C258.953 132.404 257.841 131.291 256.467 131.291ZM256.467 135.27C255.642 135.27 254.974 134.602 254.974 133.777C254.974 132.953 255.642 132.285 256.467 132.285C257.292 132.285 257.96 132.953 257.96 133.777C257.96 134.602 257.292 135.27 256.467 135.27Z" fill="white"/>
<path d="M256.467 169.743C249.573 169.743 243.092 167.06 238.216 162.187C233.341 157.314 230.657 150.835 230.657 143.944C230.657 137.053 233.341 130.575 238.216 125.702C243.092 120.829 249.573 118.145 256.467 118.145C263.361 118.145 269.842 120.829 274.717 125.702C279.593 130.575 282.277 137.053 282.277 143.944C282.277 150.835 279.593 157.314 274.717 162.187C269.842 167.06 263.361 169.743 256.467 169.743ZM256.467 120.158C250.111 120.158 244.135 122.632 239.64 127.125C235.146 131.617 232.671 137.59 232.671 143.944C232.671 150.298 235.146 156.271 239.64 160.763C244.135 165.256 250.111 167.73 256.467 167.73C262.823 167.73 268.799 165.256 273.294 160.763C277.788 156.271 280.263 150.298 280.263 143.944C280.263 137.59 277.788 131.617 273.294 127.125C268.799 122.632 262.823 120.158 256.467 120.158Z" fill="#0049FF"/>
<path d="M237.461 80.6695C237.203 80.6695 236.946 80.5709 236.749 80.3746C236.355 79.982 236.355 79.3439 236.749 78.9513L243.348 72.3551C243.742 71.9625 244.38 71.9625 244.772 72.3551C245.166 72.7476 245.166 73.3858 244.772 73.7784L238.173 80.3746C237.977 80.5709 237.719 80.6695 237.461 80.6695Z" fill="#262F5F"/>
<path d="M237.461 80.9212C237.125 80.9212 236.809 80.7903 236.571 80.5528C236.333 80.3152 236.202 79.9991 236.202 79.6629C236.202 79.3267 236.333 79.0107 236.571 78.7731L243.17 72.1769C243.662 71.6867 244.46 71.6867 244.951 72.1769C245.188 72.4144 245.319 72.7305 245.319 73.0667C245.319 73.4029 245.188 73.719 244.951 73.9566L238.351 80.5528C238.114 80.7903 237.798 80.9212 237.461 80.9212ZM244.06 72.3118C243.867 72.3118 243.674 72.3853 243.526 72.5322L236.926 79.1284C236.783 79.2714 236.705 79.4606 236.705 79.6619C236.705 79.8633 236.783 80.0535 236.926 80.1954C237.069 80.3384 237.259 80.4169 237.46 80.4169C237.662 80.4169 237.852 80.3384 237.994 80.1954L244.593 73.5992C244.736 73.4563 244.815 73.267 244.815 73.0657C244.815 72.8644 244.736 72.6742 244.593 72.5322C244.45 72.3903 244.253 72.3118 244.059 72.3118H244.06Z" fill="#001528"/>
<path d="M251.573 90.1094C251.523 90.1094 251.473 90.1054 251.422 90.0983L240.439 88.4495C239.889 88.367 239.51 87.8546 239.593 87.305C239.676 86.7554 240.188 86.3769 240.738 86.4595L251.721 88.1083C252.271 88.1908 252.649 88.7032 252.567 89.2528C252.492 89.7521 252.062 90.1104 251.572 90.1104L251.573 90.1094Z" fill="#001528"/>
<path d="M251.573 90.3611C251.51 90.3611 251.447 90.356 251.384 90.347L240.402 88.6982C239.715 88.5955 239.241 87.9533 239.344 87.2668C239.447 86.5813 240.09 86.1062 240.776 86.2099L251.759 87.8587C252.446 87.9613 252.92 88.6035 252.816 89.29C252.725 89.901 252.19 90.3611 251.573 90.3611ZM240.588 86.6981C240.22 86.6981 239.897 86.9668 239.842 87.3413C239.78 87.753 240.064 88.1385 240.476 88.1999L251.459 89.8487C251.496 89.8547 251.534 89.8567 251.573 89.8567C251.942 89.8567 252.264 89.5799 252.318 89.2135C252.379 88.8018 252.095 88.4163 251.684 88.3549L240.701 86.7061C240.663 86.7001 240.625 86.6981 240.588 86.6981Z" fill="#262F5F"/>
<path d="M229.666 77.5441C229.175 77.5441 228.746 77.1857 228.671 76.6865L227.021 65.7085C226.939 65.1589 227.317 64.6466 227.867 64.564C228.416 64.4815 228.93 64.86 229.012 65.4096L230.662 76.3875C230.744 76.9371 230.366 77.4495 229.816 77.532C229.765 77.5401 229.715 77.5431 229.665 77.5431L229.666 77.5441Z" fill="#262F5F"/>
<path d="M229.666 77.7957C229.048 77.7957 228.514 77.3347 228.422 76.7237L226.772 65.7458C226.722 65.4136 226.805 65.0814 227.005 64.8116C227.204 64.5419 227.498 64.3647 227.831 64.3154C228.163 64.2651 228.495 64.3476 228.765 64.5479C229.036 64.7472 229.213 65.0412 229.263 65.3733L230.912 76.3513C230.963 76.6834 230.88 77.0156 230.68 77.2854C230.48 77.5561 230.187 77.7323 229.854 77.7816C229.792 77.7907 229.728 77.7957 229.666 77.7957ZM228.019 64.8046C227.982 64.8046 227.944 64.8076 227.905 64.8127C227.706 64.8429 227.53 64.9485 227.41 65.1106C227.29 65.2727 227.241 65.472 227.271 65.6713L228.92 76.6492C228.976 77.0156 229.296 77.2924 229.666 77.2924C229.704 77.2924 229.741 77.2894 229.779 77.2844C229.979 77.2542 230.155 77.1485 230.275 76.9864C230.395 76.8244 230.444 76.625 230.414 76.4257L228.764 65.4478C228.734 65.2485 228.628 65.0724 228.466 64.9526C228.334 64.8559 228.179 64.8046 228.019 64.8046Z" fill="#001528"/>
</g>
<defs>
<clipPath id="clip0_201_1776">
<rect width="308" height="250" fill="white"/>
</clipPath>
</defs>
</svg>
