<svg width="195" height="24" viewBox="0 0 195 24" fill="none" xmlns="http://www.w3.org/2000/svg">
<g clip-path="url(#clip0_1_2753)">
<path d="M178.771 16.4456V15.1485H175.429V13.8215L177.594 9.29385H179.427L177.346 13.6575H178.776V12.3255H180.311V13.6575H181.24V15.1485H180.311V16.4456H178.776H178.771Z" fill="#0049FF"/>
<path d="M184.964 16.5997C184.473 16.5997 184.041 16.5003 183.658 16.3065C183.276 16.1127 182.958 15.8443 182.695 15.5013C182.436 15.1584 182.238 14.7608 182.099 14.3086C181.96 13.8563 181.895 13.3792 181.895 12.8673C181.895 12.3554 181.965 11.8733 182.099 11.421C182.233 10.9687 182.431 10.5761 182.695 10.2332C182.953 9.89025 183.276 9.62187 183.658 9.42804C184.041 9.23421 184.478 9.13481 184.964 9.13481C185.451 9.13481 185.893 9.23421 186.276 9.42804C186.658 9.62187 186.976 9.89025 187.239 10.2332C187.497 10.5761 187.696 10.9737 187.835 11.421C187.969 11.8683 188.039 12.3504 188.039 12.8673C188.039 13.3841 187.969 13.8563 187.835 14.3086C187.701 14.7559 187.502 15.1534 187.239 15.5013C186.981 15.8443 186.658 16.1127 186.276 16.3065C185.893 16.5003 185.456 16.5997 184.964 16.5997ZM184.964 14.9994C185.163 14.9994 185.347 14.9546 185.501 14.8602C185.66 14.7658 185.794 14.6316 185.913 14.4527C186.032 14.2738 186.117 14.0501 186.176 13.7867C186.236 13.5233 186.266 13.2152 186.266 12.8673C186.266 12.4051 186.211 12.0124 186.107 11.6943C185.997 11.3763 185.848 11.1377 185.655 10.9787C185.461 10.8196 185.233 10.7401 184.964 10.7401C184.771 10.7401 184.592 10.7848 184.433 10.8793C184.274 10.9737 184.135 11.1079 184.021 11.2868C183.907 11.4657 183.817 11.6894 183.758 11.9528C183.698 12.2162 183.663 12.5243 183.663 12.8772C183.663 13.3394 183.718 13.732 183.827 14.0451C183.936 14.3583 184.085 14.6018 184.279 14.7608C184.473 14.9248 184.701 15.0044 184.964 15.0044V14.9994Z" fill="#0049FF"/>
<path d="M192.037 16.4456V15.1485H188.694V13.8215L190.86 9.29385H192.692L190.611 13.6575H192.042V12.3255H193.576V13.6575H194.505V15.1485H193.576V16.4456H192.042H192.037Z" fill="#0049FF"/>
<path d="M0.5 23.5577V2.94719H2.17866L11.1531 17.3204H10.5372L19.2732 2.94719H20.8625V23.5626H19.154V5.47691L19.5365 5.59619L11.4709 18.5529H9.91145L1.82605 5.59619L2.05947 5.47691V23.5577H0.5Z" fill="#0049FF"/>
<path d="M35.156 24C33.6462 24 32.2407 23.7267 30.9395 23.1849C29.6382 22.6382 28.5059 21.8828 27.5424 20.9087C26.5789 19.9346 25.824 18.7964 25.2827 17.4943C24.7413 16.1872 24.4731 14.7757 24.4731 13.2549C24.4731 11.7341 24.7413 10.3028 25.2827 9.00062C25.824 7.69352 26.5739 6.55539 27.5424 5.58625C28.5109 4.61213 29.6432 3.8567 30.9395 3.31994C32.2407 2.77821 33.6462 2.50984 35.156 2.50984C36.6658 2.50984 38.0564 2.78318 39.3477 3.33485C40.6439 3.88652 41.7763 4.65189 42.7447 5.63098C43.7182 6.61503 44.4731 7.75316 45.0194 9.05529C45.5657 10.3574 45.8339 11.759 45.8339 13.2599C45.8339 14.7608 45.5607 16.1971 45.0194 17.4993C44.4731 18.8064 43.7182 19.9445 42.7447 20.9136C41.7713 21.8828 40.639 22.6432 39.3477 23.1899C38.0514 23.7366 36.6559 24.005 35.156 24.005V24ZM35.156 22.35C36.3926 22.35 37.5498 22.1363 38.6275 21.7039C39.7053 21.2715 40.6539 20.6552 41.4684 19.855C42.2829 19.0549 42.9186 18.0957 43.3804 16.9774C43.8423 15.8592 44.0708 14.6167 44.0708 13.2499C44.0708 11.426 43.6685 9.83061 42.8739 8.46386C42.0743 7.09712 41.0015 6.03852 39.6506 5.28308C38.2998 4.52765 36.8049 4.14993 35.156 4.14993C33.9193 4.14993 32.7621 4.36364 31.6844 4.79602C30.6067 5.22841 29.6581 5.84469 28.8436 6.64485C28.0291 7.44502 27.3934 8.40422 26.9315 9.5175C26.4696 10.6308 26.2412 11.8782 26.2412 13.2499C26.2412 15.0739 26.6385 16.6693 27.4381 18.036C28.2377 19.4028 29.3105 20.4614 30.6613 21.2168C32.0122 21.9722 33.5071 22.35 35.156 22.35Z" fill="#0049FF"/>
<path d="M59.1291 24C57.6193 24 56.2138 23.7267 54.9126 23.1849C53.6114 22.6382 52.479 21.8828 51.5155 20.9087C50.552 19.9346 49.7971 18.7964 49.2558 17.4943C48.7144 16.1872 48.4462 14.7757 48.4462 13.2549C48.4462 11.7341 48.7144 10.3028 49.2558 9.00062C49.7971 7.69352 50.5471 6.55539 51.5155 5.58625C52.484 4.61213 53.6163 3.8567 54.9126 3.31994C56.2138 2.77821 57.6193 2.50984 59.1291 2.50984C60.6389 2.50984 62.0295 2.78318 63.3208 3.33485C64.617 3.88652 65.7494 4.65189 66.7179 5.63098C67.6913 6.61503 68.4462 7.75316 68.9925 9.05529C69.5388 10.3574 69.807 11.759 69.807 13.2599C69.807 14.7608 69.5338 16.1971 68.9925 17.4993C68.4462 18.8064 67.6913 19.9445 66.7179 20.9136C65.7444 21.8828 64.6121 22.6432 63.3208 23.1899C62.0246 23.7366 60.629 24.005 59.1291 24.005V24ZM59.1291 22.35C60.3658 22.35 61.5229 22.1363 62.6007 21.7039C63.6784 21.2715 64.627 20.6552 65.4415 19.855C66.256 19.0549 66.8917 18.0957 67.3536 16.9774C67.8155 15.8592 68.0439 14.6167 68.0439 13.2499C68.0439 11.426 67.6416 9.83061 66.847 8.46386C66.0474 7.09712 64.9746 6.03852 63.6238 5.28308C62.2729 4.52765 60.778 4.14993 59.1291 4.14993C57.8925 4.14993 56.7353 4.36364 55.6575 4.79602C54.5798 5.22841 53.6312 5.84469 52.8167 6.64485C52.0022 7.44502 51.3665 8.40422 50.9046 9.5175C50.4428 10.6308 50.2143 11.8782 50.2143 13.2499C50.2143 15.0739 50.6116 16.6693 51.4112 18.036C52.2108 19.4028 53.2836 20.4614 54.6345 21.2168C55.9853 21.9722 57.4802 22.35 59.1291 22.35Z" fill="#0049FF"/>
<path d="M73.4226 23.5577V2.94719H74.8926L87.1946 20.2626V2.94719H88.903V23.5626H87.433L75.131 6.06834V23.5626H73.4226V23.5577Z" fill="#0049FF"/>
<path d="M103.683 24C101.543 24 99.6604 23.5676 98.0265 22.6979C96.3925 21.8281 95.1161 20.5956 94.2023 18.9952C93.2835 17.3949 92.8266 15.5063 92.8266 13.3245C92.8266 11.7341 93.0948 10.2779 93.6262 8.95092C94.1625 7.62394 94.9175 6.48084 95.9008 5.52164C96.8792 4.55747 98.0414 3.81694 99.3724 3.29012C100.708 2.76331 102.168 2.4999 103.758 2.4999C105.531 2.4999 107.006 2.72355 108.178 3.17084C109.35 3.61814 110.423 4.2543 111.391 5.07931L108.714 9.52744C108.163 8.94595 107.502 8.51356 106.723 8.21537C105.943 7.92214 105.074 7.77304 104.11 7.77304C103.216 7.77304 102.422 7.90226 101.726 8.15573C101.031 8.40919 100.445 8.77697 99.9683 9.25409C99.4916 9.73121 99.129 10.3028 98.8807 10.9787C98.6324 11.6496 98.5032 12.41 98.5032 13.2549C98.5032 14.393 98.7267 15.3721 99.1787 16.1872C99.6306 17.0023 100.281 17.6285 101.13 18.0659C101.98 18.5032 103.003 18.7219 104.2 18.7219C105.084 18.7219 105.968 18.5827 106.857 18.3094C107.746 18.036 108.59 17.6036 109.395 17.0122L111.868 21.5498C110.924 22.2655 109.782 22.8569 108.441 23.3191C107.095 23.7813 105.511 24.0099 103.688 24.0099L103.683 24Z" fill="#001528"/>
<path d="M123.887 24C122.288 24 120.818 23.7267 119.472 23.1849C118.126 22.6382 116.959 21.8828 115.97 20.9087C114.977 19.9346 114.212 18.7964 113.666 17.4943C113.12 16.1872 112.851 14.7757 112.851 13.2549C112.851 11.7341 113.125 10.3028 113.666 9.00062C114.212 7.69352 114.977 6.55539 115.97 5.58625C116.959 4.61213 118.126 3.8567 119.472 3.31994C120.818 2.77821 122.288 2.50984 123.887 2.50984C125.486 2.50984 126.956 2.78318 128.292 3.33485C129.633 3.88652 130.8 4.65189 131.793 5.63098C132.787 6.61503 133.562 7.75316 134.113 9.05529C134.664 10.3574 134.937 11.759 134.937 13.2599C134.937 14.7608 134.664 16.1971 134.113 17.4993C133.562 18.8064 132.792 19.9445 131.793 20.9136C130.795 21.8878 129.628 22.6432 128.292 23.1899C126.951 23.7366 125.486 24.005 123.887 24.005V24ZM123.887 18.9207C124.672 18.9207 125.392 18.7865 126.042 18.5231C126.693 18.2597 127.259 17.877 127.741 17.38C128.223 16.883 128.595 16.2866 128.858 15.5908C129.121 14.895 129.256 14.1147 129.256 13.2499C129.256 12.0919 129.027 11.088 128.565 10.2381C128.103 9.38828 127.468 8.73224 126.658 8.27003C125.849 7.80783 124.925 7.57921 123.887 7.57921C123.112 7.57921 122.397 7.7134 121.736 7.97681C121.081 8.24021 120.51 8.61793 120.028 9.10996C119.546 9.60199 119.179 10.1984 118.915 10.8992C118.657 11.5999 118.523 12.3852 118.523 13.2499C118.523 14.408 118.752 15.4119 119.213 16.2618C119.675 17.1116 120.306 17.7677 121.111 18.2299C121.915 18.6921 122.839 18.9207 123.877 18.9207H123.887Z" fill="#001528"/>
<path d="M138.334 23.5577V2.94719H145.605C147.771 2.94719 149.673 3.37958 151.307 4.24933C152.941 5.11907 154.212 6.32678 155.116 7.87741C156.025 9.42804 156.477 11.2222 156.477 13.2499C156.477 14.7807 156.219 16.1822 155.697 17.4446C155.176 18.707 154.441 19.8004 153.482 20.7049C152.523 21.6144 151.381 22.3152 150.045 22.8122C148.709 23.3092 147.229 23.5577 145.6 23.5577H138.329H138.334ZM143.753 18.5082H145.402C146.206 18.5082 146.936 18.3988 147.592 18.1851C148.247 17.9714 148.818 17.6384 149.3 17.1911C149.782 16.7438 150.149 16.1971 150.413 15.5411C150.671 14.89 150.8 14.1247 150.8 13.2499C150.8 12.0919 150.572 11.1178 150.115 10.3326C149.658 9.54732 149.027 8.95589 148.218 8.56326C147.408 8.17063 146.469 7.97184 145.402 7.97184H143.753V18.4982V18.5082Z" fill="#001528"/>
<path d="M159.879 23.5577V2.94719H174.753V7.62891H165.292V10.8842H173.134V15.1833H165.292V18.8213H194.5V23.5626H159.874L159.879 23.5577Z" fill="#001528"/>
<path d="M10.6813 5.88942C10.269 5.88942 9.88165 5.81487 9.52407 5.66577C9.16648 5.51667 8.85856 5.30793 8.59037 5.04452C8.32218 4.78111 8.11856 4.46801 7.96956 4.11017C7.82057 3.75233 7.74607 3.36467 7.74607 2.94719C7.74607 2.52972 7.82057 2.13709 7.96956 1.77925C8.11856 1.42141 8.32218 1.1083 8.59037 0.844895C8.85359 0.576517 9.16648 0.372748 9.52407 0.223649C9.88165 0.0745496 10.2641 0 10.6813 0C11.0984 0 11.4759 0.0745496 11.8285 0.223649C12.1811 0.372748 12.494 0.586457 12.7622 0.854835C13.0304 1.12321 13.234 1.43632 13.383 1.79416C13.532 2.152 13.6065 2.53469 13.6065 2.94719C13.6065 3.3597 13.532 3.75233 13.383 4.11017C13.234 4.46801 13.0254 4.78111 12.7622 5.04452C12.499 5.30793 12.1861 5.51667 11.8285 5.66577C11.4759 5.81487 11.0885 5.88942 10.6813 5.88942Z" fill="#001528"/>
</g>
<defs>
<clipPath id="clip0_1_2753">
<rect width="194" height="24" fill="white" transform="translate(0.5)"/>
</clipPath>
</defs>
</svg>
