<svg width="163" height="20" viewBox="0 0 163 20" fill="none" xmlns="http://www.w3.org/2000/svg">
<g clip-path="url(#clip0_1_2869)">
<path d="M149.366 13.7047V12.6237H146.575V11.5179L148.383 7.74487H149.913L148.175 11.3812H149.37V10.2713H150.651V11.3812H151.427V12.6237H150.651V13.7047H149.37H149.366Z" fill="white"/>
<path d="M154.537 13.8331C154.127 13.8331 153.766 13.7502 153.447 13.5887C153.127 13.4272 152.862 13.2035 152.642 12.9178C152.426 12.632 152.26 12.3006 152.144 11.9238C152.028 11.5469 151.974 11.1493 151.974 10.7227C151.974 10.2961 152.032 9.89435 152.144 9.51746C152.256 9.14057 152.422 8.81338 152.642 8.52761C152.858 8.24183 153.127 8.01819 153.447 7.85666C153.766 7.69514 154.131 7.6123 154.537 7.6123C154.944 7.6123 155.313 7.69514 155.632 7.85666C155.951 8.01819 156.217 8.24183 156.437 8.52761C156.652 8.81338 156.818 9.14471 156.934 9.51746C157.046 9.89021 157.104 10.2919 157.104 10.7227C157.104 11.1534 157.046 11.5469 156.934 11.9238C156.822 12.2965 156.657 12.6278 156.437 12.9178C156.221 13.2035 155.951 13.4272 155.632 13.5887C155.313 13.7502 154.948 13.8331 154.537 13.8331ZM154.537 12.4994C154.703 12.4994 154.857 12.4622 154.985 12.3835C155.118 12.3048 155.23 12.193 155.329 12.0439C155.429 11.8948 155.499 11.7084 155.549 11.4889C155.599 11.2694 155.624 11.0126 155.624 10.7227C155.624 10.3375 155.578 10.0103 155.491 9.74525C155.4 9.48019 155.275 9.28139 155.114 9.14885C154.952 9.01632 154.761 8.95006 154.537 8.95006C154.376 8.95006 154.226 8.98733 154.094 9.06602C153.961 9.14471 153.845 9.25654 153.749 9.40564C153.654 9.55474 153.579 9.74111 153.529 9.96062C153.48 10.1801 153.451 10.4369 153.451 10.731C153.451 11.1161 153.496 11.4433 153.588 11.7042C153.679 11.9652 153.803 12.1681 153.965 12.3006C154.127 12.4373 154.317 12.5036 154.537 12.5036V12.4994Z" fill="white"/>
<path d="M160.443 13.7047V12.6237H157.652V11.5179L159.46 7.74487H160.99L159.253 11.3812H160.447V10.2713H161.729V11.3812H162.504V12.6237H161.729V13.7047H160.447H160.443Z" fill="white"/>
<path d="M0.5 19.6315V2.45605H1.90177L9.39586 14.4337H8.8816L16.1766 2.45605H17.5037V19.6356H16.0771V4.56415L16.3964 4.66355L9.66128 15.4608H8.35905L1.60732 4.66355L1.80224 4.56415V19.6315H0.5Z" fill="white"/>
<path d="M29.4395 20C28.1788 20 27.0051 19.7722 25.9185 19.3208C24.8319 18.8652 23.8864 18.2357 23.0818 17.4239C22.2772 16.6122 21.6468 15.6637 21.1948 14.5786C20.7427 13.4894 20.5188 12.3131 20.5188 11.0458C20.5188 9.77844 20.7427 8.58565 21.1948 7.50054C21.6468 6.41129 22.2731 5.46285 23.0818 4.65523C23.8905 3.84347 24.8361 3.21394 25.9185 2.76664C27.0051 2.3152 28.1788 2.09155 29.4395 2.09155C30.7003 2.09155 31.8615 2.31934 32.9398 2.77907C34.0222 3.23879 34.9678 3.8766 35.7765 4.69251C36.5894 5.51255 37.2198 6.46099 37.676 7.5461C38.1322 8.63121 38.3561 9.79915 38.3561 11.0499C38.3561 12.3007 38.128 13.4976 37.676 14.5828C37.2198 15.672 36.5894 16.6204 35.7765 17.4281C34.9637 18.2357 34.0181 18.8694 32.9398 19.3249C31.8574 19.7805 30.692 20.0042 29.4395 20.0042V20ZM29.4395 18.625C30.4722 18.625 31.4385 18.4469 32.3385 18.0866C33.2384 17.7263 34.0305 17.2127 34.7107 16.5459C35.3908 15.8791 35.9217 15.0797 36.3074 14.1479C36.6931 13.216 36.8839 12.1806 36.8839 11.0416C36.8839 9.52166 36.5479 8.19219 35.8844 7.05324C35.2167 5.91429 34.3209 5.03212 33.1928 4.40259C32.0647 3.77306 30.8164 3.4583 29.4395 3.4583C28.4069 3.4583 27.4406 3.63639 26.5406 3.99671C25.6406 4.35703 24.8485 4.8706 24.1684 5.5374C23.4882 6.20421 22.9574 7.00354 22.5717 7.93127C22.186 8.859 21.9952 9.89855 21.9952 11.0416C21.9952 12.5616 22.327 13.8911 22.9947 15.0301C23.6624 16.169 24.5582 17.0512 25.6863 17.6807C26.8143 18.3102 28.0626 18.625 29.4395 18.625Z" fill="white"/>
<path d="M49.4583 20C48.1976 20 47.0239 19.7722 45.9373 19.3208C44.8507 18.8652 43.9052 18.2357 43.1006 17.4239C42.296 16.6122 41.6656 15.6637 41.2136 14.5786C40.7615 13.4894 40.5376 12.3131 40.5376 11.0458C40.5376 9.77844 40.7615 8.58565 41.2136 7.50054C41.6656 6.41129 42.2919 5.46285 43.1006 4.65523C43.9093 3.84347 44.8549 3.21394 45.9373 2.76664C47.0239 2.3152 48.1976 2.09155 49.4583 2.09155C50.7191 2.09155 51.8803 2.31934 52.9586 2.77907C54.041 3.23879 54.9866 3.8766 55.7953 4.69251C56.6082 5.51255 57.2386 6.46099 57.6948 7.5461C58.151 8.63121 58.3749 9.79915 58.3749 11.0499C58.3749 12.3007 58.1468 13.4976 57.6948 14.5828C57.2386 15.672 56.6082 16.6204 55.7953 17.4281C54.9825 18.2357 54.0369 18.8694 52.9586 19.3249C51.8762 19.7805 50.7108 20.0042 49.4583 20.0042V20ZM49.4583 18.625C50.491 18.625 51.4573 18.4469 52.3573 18.0866C53.2572 17.7263 54.0493 17.2127 54.7295 16.5459C55.4096 15.8791 55.9405 15.0797 56.3262 14.1479C56.7119 13.216 56.9026 12.1806 56.9026 11.0416C56.9026 9.52166 56.5667 8.19219 55.9032 7.05324C55.2354 5.91429 54.3396 5.03212 53.2116 4.40259C52.0835 3.77306 50.8352 3.4583 49.4583 3.4583C48.4257 3.4583 47.4593 3.63639 46.5594 3.99671C45.6594 4.35703 44.8673 4.8706 44.1872 5.5374C43.507 6.20421 42.9762 7.00354 42.5905 7.93127C42.2048 8.859 42.014 9.89855 42.014 11.0416C42.014 12.5616 42.3458 13.8911 43.0135 15.0301C43.6812 16.169 44.577 17.0512 45.7051 17.6807C46.8331 18.3102 48.0814 18.625 49.4583 18.625Z" fill="white"/>
<path d="M61.3941 19.6315V2.45605H62.6217L72.8945 16.8855V2.45605H74.3211V19.6356H73.0935L62.8208 5.05701V19.6356H61.3941V19.6315Z" fill="white"/>
<path d="M86.6633 20C84.8759 20 83.3041 19.6397 81.9396 18.9149C80.5752 18.1901 79.5093 17.163 78.7462 15.8294C77.979 14.4958 77.5974 12.9219 77.5974 11.1038C77.5974 9.77843 77.8214 8.56493 78.2652 7.45911C78.7131 6.35329 79.3434 5.40071 80.1646 4.60137C80.9816 3.79789 81.9521 3.18079 83.0635 2.74177C84.1791 2.30276 85.3984 2.08325 86.7256 2.08325C88.2061 2.08325 89.4379 2.26963 90.4166 2.64237C91.3954 3.01512 92.2912 3.54525 93.0999 4.23277L90.8645 7.93954C90.4042 7.45496 89.8526 7.09464 89.2015 6.84614C88.5503 6.60179 87.8246 6.47754 87.02 6.47754C86.2735 6.47754 85.6099 6.58522 85.0293 6.79644C84.4487 7.00767 83.9593 7.31415 83.5612 7.71175C83.1631 8.10934 82.8603 8.58563 82.6529 9.1489C82.4456 9.70802 82.3378 10.3417 82.3378 11.0458C82.3378 11.9942 82.5244 12.8101 82.9018 13.4893C83.2792 14.1686 83.8225 14.6904 84.5317 15.0549C85.2408 15.4193 86.0952 15.6016 87.0947 15.6016C87.8329 15.6016 88.5711 15.4856 89.3134 15.2578C90.0558 15.03 90.7608 14.6697 91.4327 14.1769L93.498 17.9582C92.71 18.5546 91.7562 19.0474 90.6364 19.4326C89.5125 19.8178 88.1895 20.0083 86.6675 20.0083L86.6633 20Z" fill="white"/>
<path d="M103.534 20C102.199 20 100.971 19.7722 99.8474 19.3208C98.7235 18.8652 97.7489 18.2357 96.9236 17.4239C96.0942 16.6122 95.4555 15.6637 94.9993 14.5786C94.5431 13.4894 94.3192 12.3131 94.3192 11.0458C94.3192 9.77844 94.5473 8.58565 94.9993 7.50054C95.4555 6.41129 96.0942 5.46285 96.9236 4.65523C97.7489 3.84347 98.7235 3.21394 99.8474 2.76664C100.971 2.3152 102.199 2.09155 103.534 2.09155C104.87 2.09155 106.097 2.31934 107.213 2.77907C108.333 3.23879 109.307 3.8766 110.137 4.69251C110.966 5.51255 111.613 6.46099 112.074 7.5461C112.534 8.63121 112.762 9.79915 112.762 11.0499C112.762 12.3007 112.534 13.4976 112.074 14.5828C111.613 15.672 110.97 16.6204 110.137 17.4281C109.303 18.2398 108.329 18.8694 107.213 19.3249C106.093 19.7805 104.87 20.0042 103.534 20.0042V20ZM103.534 15.7673C104.19 15.7673 104.791 15.6554 105.334 15.4359C105.878 15.2164 106.35 14.8975 106.753 14.4834C107.155 14.0692 107.466 13.5722 107.686 12.9924C107.906 12.4125 108.018 11.7623 108.018 11.0416C108.018 10.0766 107.827 9.24003 107.441 8.53181C107.055 7.82359 106.525 7.27689 105.849 6.89172C105.173 6.50655 104.401 6.31603 103.534 6.31603C102.887 6.31603 102.29 6.42785 101.739 6.64736C101.191 6.86687 100.714 7.18163 100.312 7.59166C99.9096 8.00168 99.6027 8.49868 99.3829 9.08265C99.1673 9.66662 99.0553 10.321 99.0553 11.0416C99.0553 12.0066 99.2461 12.8433 99.6318 13.5515C100.017 14.2597 100.544 14.8064 101.216 15.1916C101.888 15.5767 102.659 15.7673 103.526 15.7673H103.534Z" fill="white"/>
<path d="M115.599 19.6315V2.45605H121.67C123.479 2.45605 125.067 2.81638 126.431 3.54117C127.796 4.26595 128.857 5.27237 129.612 6.56457C130.371 7.85676 130.749 9.35189 130.749 11.0417C130.749 12.3173 130.533 13.4853 130.098 14.5372C129.662 15.5892 129.048 16.5004 128.248 17.2541C127.447 18.0121 126.494 18.596 125.378 19.0102C124.262 19.4244 123.026 19.6315 121.666 19.6315H115.595H115.599ZM120.123 15.4235H121.5C122.172 15.4235 122.782 15.3324 123.329 15.1543C123.877 14.9762 124.354 14.6988 124.756 14.326C125.158 13.9533 125.465 13.4977 125.685 12.951C125.901 12.4084 126.008 11.7706 126.008 11.0417C126.008 10.0767 125.818 9.26492 125.436 8.61054C125.054 7.95616 124.528 7.4633 123.852 7.13611C123.176 6.80892 122.392 6.64326 121.5 6.64326H120.123V15.4153V15.4235Z" fill="white"/>
<path d="M133.589 19.6315V2.45605H146.011V6.35748H138.11V9.07026H144.659V12.6528H138.11V15.6845H162.5V19.6356H133.585L133.589 19.6315Z" fill="white"/>
<path d="M9.00187 4.90785C8.65765 4.90785 8.33416 4.84572 8.03556 4.72147C7.73696 4.59722 7.47983 4.42328 7.25588 4.20377C7.03192 3.98426 6.86189 3.72334 6.73747 3.42514C6.61305 3.12694 6.55084 2.80389 6.55084 2.45599C6.55084 2.1081 6.61305 1.78091 6.73747 1.48271C6.86189 1.18451 7.03192 0.923587 7.25588 0.70408C7.47568 0.480431 7.73696 0.310623 8.03556 0.186374C8.33416 0.0621247 8.6535 0 9.00187 0C9.35024 0 9.66543 0.0621247 9.95988 0.186374C10.2543 0.310623 10.5156 0.488714 10.7396 0.712363C10.9635 0.936012 11.1336 1.19694 11.258 1.49513C11.3824 1.79333 11.4446 2.11224 11.4446 2.45599C11.4446 2.79975 11.3824 3.12694 11.258 3.42514C11.1336 3.72334 10.9594 3.98426 10.7396 4.20377C10.5198 4.42328 10.2585 4.59722 9.95988 4.72147C9.66543 4.84572 9.34194 4.90785 9.00187 4.90785Z" fill="white"/>
</g>
<defs>
<clipPath id="clip0_1_2869">
<rect width="162" height="20" fill="white" transform="translate(0.5)"/>
</clipPath>
</defs>
</svg>
